<svg width="24" height="24" viewBox="0 0 24 24" fill="none" xmlns="http://www.w3.org/2000/svg">
<g clip-path="url(#clip0_1_54)">
<path d="M23.9895 23.9833H0.0105133V0.0166988H23.9895L11.9988 11.9926L23.9895 23.9833Z" fill="url(#paint0_linear_1_54)"/>
<path d="M14.1401 16.7003L16.9034 18.2935C16.9402 18.3151 16.9809 18.3292 17.0232 18.3349C17.0655 18.3406 17.1085 18.3379 17.1497 18.3268C17.1909 18.3158 17.2295 18.2967 17.2632 18.2705C17.297 18.2444 17.3252 18.2118 17.3462 18.1747C17.3677 18.1383 17.3817 18.098 17.3874 18.0561C17.3931 18.0142 17.3903 17.9715 17.3792 17.9307C17.3682 17.8899 17.349 17.8517 17.323 17.8184C17.2969 17.7851 17.2644 17.7574 17.2275 17.7368L14.432 16.119C15.0095 14.8252 15.3079 13.4242 15.3079 12.0074C15.3079 10.5906 15.0095 9.1897 14.432 7.89589L17.2275 6.278C17.3019 6.23502 17.3563 6.16423 17.3786 6.08118C17.4008 5.99814 17.3892 5.90965 17.3462 5.83518C17.3033 5.76071 17.2325 5.70637 17.1494 5.6841C17.0664 5.66183 16.9779 5.67346 16.9034 5.71644L14.1401 7.2997C13.386 5.92492 12.304 4.75762 10.9904 3.90141C9.6767 3.04521 8.17197 2.52659 6.60974 2.39159V21.6084C8.17268 21.476 9.67847 20.9584 10.9925 20.1019C12.3066 19.2455 13.388 18.0768 14.1401 16.7003ZM9.31118 7.58914C9.31069 7.42942 9.35764 7.27316 9.44606 7.14016C9.53449 7.00715 9.66042 6.9034 9.80788 6.84206C9.95535 6.78071 10.1177 6.76453 10.2744 6.79557C10.431 6.82661 10.575 6.90347 10.6879 7.0164C10.8008 7.12934 10.8777 7.27327 10.9087 7.42994C10.9398 7.58661 10.9236 7.74897 10.8623 7.89643C10.8009 8.04389 10.6972 8.16982 10.5642 8.25825C10.4312 8.34668 10.2749 8.39362 10.1152 8.39314C9.90194 8.39314 9.69745 8.30843 9.54667 8.15765C9.39589 8.00687 9.31118 7.80237 9.31118 7.58914V7.58914ZM9.31118 16.4109C9.31118 16.2513 9.35854 16.0952 9.44727 15.9626C9.53599 15.8299 9.6621 15.7265 9.8096 15.6655C9.95711 15.6046 10.1194 15.5888 10.2759 15.6201C10.4324 15.6514 10.5761 15.7284 10.6888 15.8415C10.8015 15.9545 10.8781 16.0984 10.9089 16.2551C10.9398 16.4117 10.9234 16.5739 10.862 16.7212C10.8006 16.8685 10.6969 16.9943 10.5639 17.0826C10.431 17.1709 10.2748 17.2178 10.1152 17.2173C10.0094 17.2173 9.90464 17.1965 9.80693 17.1559C9.70922 17.1153 9.62048 17.0559 9.54579 16.981C9.4711 16.9061 9.41193 16.8171 9.37167 16.7193C9.33141 16.6215 9.31085 16.5167 9.31118 16.4109V16.4109Z" fill="white"/>
</g>
<defs>
<linearGradient id="paint0_linear_1_54" x1="23.992" y1="0.0909141" x2="0.015456" y2="24.0674" gradientUnits="userSpaceOnUse">
<stop stop-color="#E44857"/>
<stop offset="0.47" stop-color="#C711E1"/>
<stop offset="1" stop-color="#7F52FF"/>
</linearGradient>
<clipPath id="clip0_1_54">
<rect width="24" height="24" fill="white"/>
</clipPath>
</defs>
</svg>
